{
  "accessors": [
    {
      "bufferView": 2,
      "componentType": 5126,
      "count": 1514,
      "max": [
        2.2700800895690918,
        3.7890501022338867,
        1.7236200571060181
      ],
      "min": [
        -2.2700800895690918,
        -2.2800500392913818,
        -3.2438600063323975
      ],
      "type": "VEC3"
    },
    {
      "bufferView": 2,
      "byteOffset": 18168,
      "componentType": 5126,
      "count": 1514,
      "max": [
        0.99899154901504517,
        0.99896442890167236,
        1
      ],
      "min": [
        -0.99899154901504517,
        -0.99931097030639648,
        -0.99965620040893555
      ],
      "type": "VEC3"
    },
    {
      "bufferView": 3,
      "componentType": 5126,
      "count": 1514,
      "max": [
        0.999988853931427,
        0.99975109100341797,
        0.99925702810287476,
        1
      ],
      "min": [
        -0.99893611669540405,
        -1,
        -0.99551719427108765,
        -1
      ],
      "type": "VEC4"
    },
    {
      "bufferView": 1,
      "componentType": 5126,
      "count": 1514,
      "max": [
        0.95734000205993652,
        0.98045998811721802
      ],
      "min": [
        0.031039999797940254,
        0.024930000305175781
      ],
      "type": "VEC2"
    },
    {
      "bufferView": 0,
      "componentType": 5125,
      "count": 8202,
      "max": [
        1513
      ],
      "min": [
        0
      ],
      "type": "SCALAR"
    }
  ],
  "asset": {
    "extras": {
      "author": "DaGreen (https://sketchfab.com/DuskFallSalival)",
      "license": "CC-BY-4.0 (http://creativecommons.org/licenses/by/4.0/)",
      "source": "https://sketchfab.com/3d-models/anime-head-fe08e8a406764f81863ba4bba629f608",
      "title": "Anime head"
    },
    "generator": "Sketchfab-6.63.1",
    "version": "2.0"
  },
  "bufferViews": [
    {
      "buffer": 0,
      "byteLength": 32808,
      "byteOffset": 0,
      "name": "floatBufferViews",
      "target": 34963
    },
    {
      "buffer": 0,
      "byteLength": 12112,
      "byteOffset": 32808,
      "byteStride": 8,
      "name": "floatBufferViews",
      "target": 34962
    },
    {
      "buffer": 0,
      "byteLength": 36336,
      "byteOffset": 44920,
      "byteStride": 12,
      "name": "floatBufferViews",
      "target": 34962
    },
    {
      "buffer": 0,
      "byteLength": 24224,
      "byteOffset": 81256,
      "byteStride": 16,
      "name": "floatBufferViews",
      "target": 34962
    }
  ],
  "buffers": [
    {
      "byteLength": 105480,
      "uri": "scene.bin"
    }
  ],
  "extensionsUsed": [
    "KHR_materials_unlit"
  ],
  "images": [
    {
      "uri": "textures/Material_baseColor.png"
    }
  ],
  "materials": [
    {
      "doubleSided": true,
      "emissiveFactor": [
        0,
        0,
        0
      ],
      "extensions": {
        "KHR_materials_unlit": {}
      },
      "name": "Material",
      "pbrMetallicRoughness": {
        "baseColorFactor": [
          1,
          1,
          1,
          1
        ],
        "baseColorTexture": {
          "index": 0,
          "texCoord": 0
        },
        "metallicFactor": 0,
        "roughnessFactor": 1
      }
    }
  ],
  "meshes": [
    {
      "name": "Face_0",
      "primitives": [
        {
          "attributes": {
            "NORMAL": 1,
            "POSITION": 0,
            "TANGENT": 2,
            "TEXCOORD_0": 3
          },
          "indices": 4,
          "material": 0,
          "mode": 4
        }
      ]
    }
  ],
  "nodes": [
    {
      "children": [
        1
      ],
      "name": "RootNode (gltf orientation matrix)",
      "rotation": [
        -0.70710678118654746,
        -0,
        -0,
        0.70710678118654757
      ]
    },
    {
      "children": [
        2
      ],
      "name": "RootNode (model correction matrix)"
    },
    {
      "children": [
        3
      ],
      "name": "Root"
    },
    {
      "children": [
        4
      ],
      "matrix": [
        1,
        0,
        0,
        0,
        0,
        -0,
        1,
        0,
        0,
        -1,
        -0,
        0,
        0,
        0,
        0,
        1
      ],
      "name": "Face"
    },
    {
      "mesh": 0,
      "name": "Face_0"
    }
  ],
  "samplers": [
    {
      "magFilter": 9729,
      "minFilter": 9987,
      "wrapS": 10497,
      "wrapT": 10497
    }
  ],
  "scene": 0,
  "scenes": [
    {
      "name": "OSG_Scene",
      "nodes": [
        0
      ]
    }
  ],
  "textures": [
    {
      "sampler": 0,
      "source": 0
    }
  ]
}

